# xmcd
#
# Track frame offsets:
#	150
#	16434
#	29011
#	45700
#	60030
#	73695
#	90625
#	105996
#	119176
#	131959
#	148516
#	166208
#
# Disc length: 2533 seconds
#
# Revision: 1
# Processed by: cddbd v1.5.2PL0 Copyright (c) Steve Scherf et al.
# Submitted via: EZCDAudioConverter 7.1.4.1
#
DISCID=a709e30c
DTITLE=Various Artist - She Was Country When Country Wasn't Cool
DYEAR=2006
DGENRE=Country
TTITLE0=Kenny Chesney/Reba McEntire - I Was Country When Country Wasn't Cool
TTITLE1=Terri Clark - Sleeping Single in a Double Bed
TTITLE2=LeAnn Rimes - If Loving You Is Wrong, I Don't Wanna Be Right
TTITLE3=Brad Paisley - In Times Like These
TTITLE4=Gretchen Wilson - The Midnight Oil
TTITLE5=Sara Evans - Crackers
TTITLE6=Willie Nelson/Shelby Lynne - This Time I Almost Made It
TTITLE7=Blaine Larsen - I Wish That I Could Fall in Love Today
TTITLE8=Lorrie Morgan - That's What Friends Are For
TTITLE9=Dierks Bentley - Fast Lanes and Country Roads
TTITLE10=Randy Owen - Years
TTITLE11=CeCe Winans - He Set My Life to Music
EXTD=
EXTT0=
EXTT1=
EXTT2=
EXTT3=
EXTT4=
EXTT5=
EXTT6=
EXTT7=
EXTT8=
EXTT9=
EXTT10=
EXTT11=
PLAYORDER=
